#!OML:ASF I:\golf\golf\golf 2\Subject 1\2002-09-07\Subject1.ASF
:FULLY-SPECIFIED
:DEGREES
321
root -7.25423 17.9927 -4.07706 -171.281 10.9014 -174.427
lowerback -8.53428 11.4194 15.668
upperback -11.9528 19.187 6.25918
thorax -6.49753 10.2036 -0.806671
lowerneck -3.72154 -22.5744 -3.40145
upperneck 11.9802 -34.6222 8.47524
head 6.34245 -17.1245 0.226201
rclavicle 2.94201e-014 9.06458e-014
rhumerus 105.655 35.2585 -51.7008
rradius 79.3498
rwrist 8.77772
rhand -45.2607 34.1974
rfingers 7.12502
rthumb -18.0345 5.01346
lclavicle 2.94201e-014 9.06458e-014
lhumerus 58.5995 23.7412 65.9959
lradius 95.3218
lwrist 12.3368
lhand -31.2694 17.6357
lfingers 7.12502
lthumb -184.543 -492.433
rfemur 16.247 -5.5706 15.2511
rtibia 18.6137
rfoot 27.5056 -36.2303
rtoes 27.7685
lfemur -21.0357 -21.2218 -15.0934
ltibia 23.9545
lfoot 37.2512 -45.1473
ltoes 50.0177
322
root -7.25823 18.0136 -4.10764 -171.277 10.5724 -174.327
lowerback -8.72035 11.394 15.7035
upperback -12.0402 19.1518 6.18771
thorax -6.47268 10.1939 -0.863464
lowerneck -3.43596 -22.6556 -3.40619
upperneck 11.743 -34.649 8.41166
head 6.21218 -17.1629 0.268222
rclavicle 2.38542e-014 -5.08889e-014
rhumerus 105.675 35.0935 -51.6865
rradius 80.0511
rwrist 8.7522
rhand -46.1547 34.891
rfingers 7.12502
rthumb -18.8945 5.78864
lclavicle 2.38542e-014 -5.08889e-014
lhumerus 58.7771 24.0843 65.6305
lradius 95.7565
lwrist 11.4424
lhand -31.6973 17.3854
lfingers 7.12502
lthumb -184.956 -492.693
rfemur 16.5288 -5.38349 15.4997
rtibia 18.1988
rfoot 28.3411 -36.0244
rtoes 27.1683
lfemur -21.1896 -21.7731 -14.8115
ltibia 24.2824
lfoot 35.2879 -46.2452
ltoes 48.5907
323
root -7.25952 18.0306 -4.13247 -171.297 10.2725 -174.306
lowerback -9.03887 11.3677 15.5779
upperback -11.9829 19.04 6.19783
thorax -6.27784 10.1694 -0.717335
lowerneck -3.57973 -22.6248 -3.39636
upperneck 11.6637 -34.5427 8.44017
head 6.20535 -17.0981 0.273781
rclavicle 1.11319e-014 3.18055e-014
rhumerus 105.919 35.0244 -51.5011
rradius 80.6601
rwrist 8.81097
rhand -46.9173 35.3249
rfingers 7.12502
rthumb -19.6278 6.29574
lclavicle 1.11319e-014 3.18055e-014
lhumerus 58.9474 24.4776 65.3444
lradius 96.1122
lwrist 10.4162
lhand -32.3794 17.0239
lfingers 7.12502
lthumb -185.615 -493.071
rfemur 16.8742 -5.1315 15.7052
rtibia 17.6314
rfoot 28.1618 -36.7872
rtoes 28.5038
lfemur -21.3655 -22.1941 -14.6318
ltibia 24.7269
lfoot 33.1837 -47.5024
ltoes 47.0201
324
root -7.25813 18.0301 -4.1517 -171.324 9.98317 -174.356
lowerback -9.06569 11.3734 15.4408
upperback -12.1628 19.1018 6.03261
thorax -6.44145 10.1972 -0.839577
lowerneck -3.77421 -22.5424 -3.4301
upperneck 11.9374 -34.5193 8.56186
head 6.35087 -17.0667 0.254388
rclavicle -6.75868e-014 -8.74653e-014
rhumerus 105.564 34.9381 -51.759
rradius 81.1324
rwrist 8.9594
rhand -47.686 35.8673
rfingers 7.12502
rthumb -20.3666 6.91532
lclavicle -6.75868e-014 -8.74653e-014
lhumerus 59.0051 24.4174 65.141
lradius 96.409
lwrist 9.33695
lhand -32.4953 16.7928
lfingers 7.12502
lthumb -185.727 -493.305
rfemur 17.2004 -4.96624 15.8102
rtibia 17.1302
rfoot 28.2695 -37.2988
rtoes 29.4732
lfemur -21.5285 -22.2578 -14.6569
ltibia 25.1518
lfoot 32.864 -48.0633
ltoes 46.8209
325
root -7.25749 18.0221 -4.17192 -171.372 9.69791 -174.449
lowerback -9.21147 11.3902 15.3581
upperback -12.2687 19.1007 5.84474
thorax -6.43461 10.1933 -0.964944
lowerneck -3.73312 -22.4661 -3.45492
upperneck 11.935 -34.4516 8.73811
head 6.3764 -17.0312 0.306245
rclavicle -1.74931e-014 1.19271e-013
rhumerus 105.208 34.8336 -52.0323
rradius 81.5053
rwrist 8.95885
rhand -48.3375 36.7507
rfingers 7.12502
rthumb -20.9927 7.86683
lclavicle -1.74931e-014 1.19271e-013
lhumerus 59.0195 24.4185 64.8977
lradius 96.6367
lwrist 8.19161
lhand -32.33 16.881
lfingers 7.12502
lthumb -185.567 -493.212
rfemur 17.4384 -4.97424 15.797
rtibia 16.8957
rfoot 29.0727 -37.0115
rtoes 29.9274
lfemur -21.6271 -22.2271 -14.8097
ltibia 25.467
lfoot 33.0721 -48.5026
ltoes 46.8202
326
root -7.25713 18.0129 -4.18946 -171.443 9.37612 -174.482
lowerback -9.43619 11.3407 15.3018
upperback -12.2801 18.9836 5.78155
thorax -6.3269 10.1468 -0.958426
lowerneck -3.80444 -22.4006 -3.49449
upperneck 12.0048 -34.3437 8.74033
head 6.40996 -16.9729 0.306276
rclavicle -4.13472e-014 -1.27222e-014
rhumerus 104.96 34.8848 -52.1399
rradius 81.9126
rwrist 8.78721
rhand -49.0233 37.955
rfingers 7.12502
rthumb -21.6514 9.14558
lclavicle -4.13472e-014 -1.27222e-014
lhumerus 58.9355 24.58 64.453
lradius 96.7025
lwrist 7.35464
lhand -32.6944 17.1452
lfingers 7.12502
lthumb -185.919 -492.957
rfemur 17.5846 -5.11538 15.8333
rtibia 16.8958
rfoot 29.8436 -36.6203
rtoes 30.5316
lfemur -21.5944 -22.3474 -14.8501
ltibia 25.6687
lfoot 31.6541 -49.8031
ltoes 45.2835
327
root -7.2583 18.0082 -4.20338 -171.475 9.09086 -174.456
lowerback -9.54773 11.3162 15.3346
upperback -12.3319 18.9319 5.68845
thorax -6.29063 10.1189 -1.04907
lowerneck -4.046 -22.3698 -3.57375
upperneck 12.3291 -34.318 8.64566
head 6.54631 -16.9429 0.234247
rclavicle 5.40694e-014 1.57437e-013
rhumerus 104.589 34.9177 -52.2816
rradius 82.2802
rwrist 8.69246
rhand -49.8132 39.0562
rfingers 7.12502
rthumb -22.4098 10.3362
lclavicle 5.40694e-014 1.57437e-013
lhumerus 58.878 24.657 64.0145
lradius 96.657
lwrist 6.5449
lhand -33.1721 17.1807
lfingers 7.12502
lthumb -186.38 -492.935
rfemur 17.6278 -5.21105 15.9531
rtibia 16.9641
rfoot 30.7244 -36.142
rtoes 29.9275
lfemur -21.5847 -22.3817 -14.8217
ltibia 25.8387
lfoot 30.6445 -50.6569
ltoes 44.153
328
root -7.26177 18.0071 -4.21706 -171.424 8.93154 -174.495
lowerback -9.82637 11.3162 15.2664
upperback -12.286 18.8521 5.6568
thorax -6.09814 10.0984 -0.976146
lowerneck -4.20742 -22.3632 -3.6343
upperneck 12.434 -34.2558 8.54072
head 6.59139 -16.9022 0.192729
rclavicle -1.82882e-014 3.02153e-014
rhumerus 104.413 35.0299 -52.2992
rradius 82.5122
rwrist 8.71008
rhand -50.4906 39.7076
rfingers 7.12502
rthumb -23.0599 11.0673
lclavicle -1.82882e-014 3.02153e-014
lhumerus 58.7611 24.9246 63.6711
lradius 96.5297
lwrist 5.44944
lhand -33.1982 16.9843
lfingers 7.12502
lthumb -186.406 -493.133
rfemur 17.541 -5.1567 16.0044
rtibia 17.0339
rfoot 31.3045 -35.8569
rtoes 29.2265
lfemur -21.7182 -22.2011 -14.9048
ltibia 25.9855
lfoot 31.8629 -50.2538
ltoes 44.9198
329
root -7.26429 18.0063 -4.2298 -171.347 8.78741 -174.608
lowerback -10.0823 11.3161 15.1036
upperback -12.2793 18.8013 5.61286
thorax -5.97964 10.0957 -0.885552
lowerneck -4.28964 -22.3648 -3.68585
upperneck 12.4571 -34.184 8.42751
head 6.594 -16.8643 0.167444
rclavicle 5.1684e-014 3.02153e-014
rhumerus 104.165 35.299 -52.4163
rradius 82.565
rwrist 8.80419
rhand -51.0159 40.3529
rfingers 7.12502
rthumb -23.5638 11.7765
lclavicle 5.1684e-014 3.02153e-014
lhumerus 58.5437 25.0453 63.2797
lradius 96.3062
lwrist 4.71426
lhand -33.3517 16.7951
lfingers 7.12502
lthumb -186.554 -493.326
rfemur 17.3891 -5.09874 15.9792
rtibia 17.1448
rfoot 31.4269 -35.9518
rtoes 29.4578
lfemur -21.8143 -22.0306 -15.0441
ltibia 26.0532
lfoot 31.9754 -50.4972
ltoes 44.8691
330
root -7.26305 18.0043 -4.239 -171.328 8.58317 -174.724
lowerback -10.1725 11.3158 15.0131
upperback -12.3521 18.7878 5.47403
thorax -5.98569 10.0873 -0.97138
lowerneck -4.48103 -22.3242 -3.64078
upperneck 12.6744 -34.0844 8.22951
head 6.64545 -16.8081 0.0912979
rclavicle 1.03368e-014 -5.24792e-014
rhumerus 103.666 35.5488 -52.8368
rradius 82.5393
rwrist 8.8532
rhand -51.3823 41.2549
rfingers 7.12502
rthumb -23.9152 12.7241
lclavicle 1.03368e-014 -5.24792e-014
lhumerus 58.3221 24.9155 62.7596
lradius 96.0357
lwrist 4.29256
lhand -33.6425 16.6392
lfingers 7.12502
lthumb -186.834 -493.491
rfemur 17.2789 -5.0429 16.0099
rtibia 17.3174
rfoot 31.4152 -36.0708
rtoes 29.5468
lfemur -21.814 -21.8481 -15.1809
ltibia 26.037
lfoot 31.6576 -51.1884
ltoes 44.4068
